<svg width="36" height="36" viewBox="0 0 36 36" fill="none" xmlns="http://www.w3.org/2000/svg">
    <rect width="36" height="36" rx="18" fill="white"/>
    <path fill-rule="evenodd" clip-rule="evenodd"
          d="M27.3775 17.9997C27.3775 20.4867 26.3895 22.8719 24.6309 24.6306C22.8723 26.3892 20.4871 27.3772 18 27.3772C15.513 27.3772 13.1277 26.3892 11.3691 24.6306C9.6105 22.8719 8.62252 20.4867 8.62252 17.9997C8.62252 15.5126 9.6105 13.1274 11.3691 11.3688C13.1277 9.61015 15.513 8.62217 18 8.62217C20.4871 8.62217 22.8723 9.61015 24.6309 11.3688C26.3895 13.1274 27.3775 15.5126 27.3775 17.9997ZM29.935 17.9997C29.935 21.165 28.6776 24.2007 26.4393 26.439C24.2011 28.6772 21.1654 29.9347 18 29.9347C14.8347 29.9347 11.7989 28.6772 9.5607 26.439C7.32245 24.2007 6.06502 21.165 6.06502 17.9997C6.06502 14.8343 7.32245 11.7986 9.5607 9.56035C11.7989 7.3221 14.8347 6.06467 18 6.06467C21.1654 6.06467 24.2011 7.3221 26.4393 9.56035C28.6776 11.7986 29.935 14.8343 29.935 17.9997ZM18 11.1797C17.6609 11.1797 17.3356 11.3144 17.0958 11.5542C16.856 11.794 16.7213 12.1193 16.7213 12.4584C16.7213 12.7976 16.856 13.1228 17.0958 13.3626C17.3356 13.6024 17.6609 13.7372 18 13.7372C19.1305 13.7372 20.2147 14.1863 21.0141 14.9856C21.8134 15.785 22.2625 16.8692 22.2625 17.9997C22.2625 18.3388 22.3972 18.6641 22.6371 18.9039C22.8769 19.1437 23.2021 19.2784 23.5413 19.2784C23.8804 19.2784 24.2057 19.1437 24.4455 18.9039C24.6853 18.6641 24.82 18.3388 24.82 17.9997C24.82 16.1909 24.1015 14.4562 22.8225 13.1772C21.5435 11.8982 19.8088 11.1797 18 11.1797Z"
          fill="#4F1FCF"/>
</svg>
